<svg width="16" height="16" viewBox="0 0 16 16" xmlns="http://www.w3.org/2000/svg" fill="#C5C5C5">
  <path fill-rule="evenodd" clip-rule="evenodd" d="M3.774 1l-.667.667H1.774v1H1.107l-.667.667v1.333H.44v1.333h.667v2h2v-2h2v2h2v-2h2v2h2v-2h2V5.667h-.774V3.667h-.893V2.334h-.666l-.667-.667H9.107V3h-2V1.667H5.44V3h-1.666V1zm-.667 3H2.44v1.334h.667V4zm1.334 0h.666v1.334h-.666V4zm2 0h.666v1.334h-.666V4zm2 0h.666v1.334h-.666V4zm1.333 0h.667v1.334h-.667V4z"/>
  <path d="M1.107 13.667c0-1.334 1.333-2.162 2.667-2.162s2.667.828 2.667 2.162c0 .59.805.725 1.333.725.529 0 .667-.471.667-1 0-.53.471-.667 1-.667.53 0 1.333.667 1.333 2 0 1.005-.862 2-2.333 2-1.471 0-3.667.005-5.667 0-1.176 0-1.667-.823-1.667-1.666v-1.392z"/>
</svg> 