<svg width="16" height="16" viewBox="0 0 16 16" xmlns="http://www.w3.org/2000/svg" fill="#C5C5C5">
  <path fill-rule="evenodd" clip-rule="evenodd" d="M9.1 4.4L8.6 2H7.4l-.5 2.4-.7.3-2-1.3-.9.8 1.3 2-.2.7-2.4.5v1.2l2.4.5.3.8-1.3 2 .8.8 2-1.3.8.3.4 2.3h1.2l.5-2.4.8-.3 2 1.3.8-.8-1.3-2 .3-.8 2.3-.4V7.4l-2.3-.5-.3-.8 1.3-2-.8-.8-2 1.3-.7-.2zM9.4 1l.5 2.4L12 2.1l2 2-1.4 2.1 2.4.5v2.8l-2.4.5 1.3 2-2 2-2.1-1.4-.5 2.5H7.4l-.5-2.4-2.1 1.3-2-2 1.4-2.1-2.4-.5V7.4l2.4-.5L3 4.9l2-2L7 4.3l.5-2.4h1.8z"/>
  <path fill-rule="evenodd" clip-rule="evenodd" d="M8 6a2 2 0 1 0 0 4 2 2 0 0 0 0-4zm-3 2a3 3 0 1 1 6 0 3 3 0 0 1-6 0z"/>
</svg> 