<svg width="16" height="16" viewBox="0 0 16 16" xmlns="http://www.w3.org/2000/svg" fill="#C5C5C5">
  <path fill-rule="evenodd" clip-rule="evenodd" d="M14.28 2.73a2.06 2.06 0 0 1 0 2.94l-.97.96-.73-.72 1.25-1.26a.97.97 0 0 0-1.36-1.37l-1.27 1.28-.72-.72.97-.97a2.06 2.06 0 0 1 2.83 0zM10.16 5.3L3.32 12.15l.5.5 1.51-1.52L6.25 12l-1.52 1.52.5.5 6.85-6.85-.92-.92 1.52-1.52-.72-.72-1.52 1.52-.28-.28zM4.6 13.43l-2.07 2.07H1.47v-1.06l2.07-2.07.71.71-.24.25.35.35.25-.24.7.7-1.06 1.06 1.06 1.06 1.06-1.06.71.7-.71.72-1.42 1.41-.7-.7.24-.25-.36-.35-.24.24-.71-.7 1.06-1.07L2.9 13.43l-1.06 1.06-.71-.71 1.41-1.41.7.7-.24.25.35.35.25-.24.71.71-.72.7z"/>
</svg> 