<?xml version="1.0" encoding="UTF-8"?>
<svg width="16" height="16" viewBox="0 0 16 16" fill="none" xmlns="http://www.w3.org/2000/svg">
    <path d="M14.5 2h-13c-.83 0-1.5.67-1.5 1.5v9c0 .83.67 1.5 1.5 1.5h13c.83 0 1.5-.67 1.5-1.5v-9c0-.83-.67-1.5-1.5-1.5zm.5 10.5c0 .28-.22.5-.5.5h-13c-.28 0-.5-.22-.5-.5v-7h14v7zm0-8h-14v-1c0-.28.22-.5.5-.5h13c.28 0 .5.22.5.5v1z" fill="#C5C5C5"/>
    <circle cx="2.5" cy="4.5" r=".5" fill="#C5C5C5"/>
    <circle cx="4.5" cy="4.5" r=".5" fill="#C5C5C5"/>
    <circle cx="6.5" cy="4.5" r=".5" fill="#C5C5C5"/>
</svg>
