<svg width="16" height="16" viewBox="0 0 16 16" xmlns="http://www.w3.org/2000/svg" fill="#424242">
  <path fill-rule="evenodd" clip-rule="evenodd" d="M8 2.5a5.5 5.5 0 0 0-5.37 4.3c.56.07 1.03.27 1.37.51V7c0-.83.67-1.5 1.5-1.5h.79c.24-.26.56-.49.92-.65A.5.5 0 0 1 7.5 4h1a.5.5 0 0 1 .5.5V5a3 3 0 0 1 3 3v.29a2.37 2.37 0 0 1 1.5-.19 5.5 5.5 0 0 0-5.5-5.6zm1.71 6.5h-.74L9 9h3.26a5.5 5.5 0 0 1-10.52 0h3.26l.03 0h.74l1.97-1-.03-.5h-.58l-2.03 1h-.9a2.5 2.5 0 0 1 .54-1h.36c.41 0 .73.32.73.7 0 .1-.2.19-.6.27L8 8l2.24-.52a.7.7 0 0 0-.06-.28c0-.38.32-.7.73-.7h.36a2.5 2.5 0 0 1 .54 1h-.9l-2.03-1h-.58l-.03.5 1.97 1z"/>
</svg> 