<svg width="16" height="16" viewBox="0 0 16 16" xmlns="http://www.w3.org/2000/svg" fill="#424242">
  <path fill-rule="evenodd" clip-rule="evenodd" d="M5.08 2.005c-1.508.054-2.962.259-3.568.7-.91.666-1.067 2.174-1.14 3.562V7.71h4.557V8.4H.198S0 4.564.094 3.373c.041-.516.287-1.23.8-1.744.965-.964 2.533-1.139 3.987-1.247 1.067-.08 2.2-.07 3.3-.035V2.41c0 .38-.379.703-.759.703a9.7 9.7 0 0 0-2.342-.013zm-.056 1.44a.69.69 0 0 1-.691-.695.69.69 0 0 1 .69-.695.69.69 0 0 1 .692.695.69.69 0 0 1-.691.696zm6.221 1.337c-1.084-.033-2.2-.014-3.3.035-1.507.067-2.889.414-3.3 1.175-.608 1.125-.662 2.671-.662 3.863v2.671c0 1.521.804 2.357 1.82 2.636 1.265.346 2.02.461 3.458.461 1.669 0 3.3-.228 3.987-1.175.607-.842.662-1.825.662-3.3V7.71h-4.557v-.692h7.7c1.41 0 1.933-1.001 2.41-2.39.491-1.437.47-2.818 0-4.16C12.3.137 11.927.046 11.177.046H8.025v1.548c0 .4-.377.74-.78.74zm.781 9.418a.69.69 0 0 1 .691.695.69.69 0 0 1-.69.695.69.69 0 0 1-.692-.695.69.69 0 0 1 .691-.695z"/>
</svg> 